<?xml version="1.0" standalone="no"?>
<!DOCTYPE svg PUBLIC "-//W3C//DTD SVG 20010904//EN"
 "http://www.w3.org/TR/2001/REC-SVG-20010904/DTD/svg10.dtd">
<svg version="1.0" xmlns="http://www.w3.org/2000/svg"
 width="399.000000pt" height="399.000000pt" viewBox="0 0 399.000000 399.000000"
 preserveAspectRatio="xMidYMid meet">
<metadata>
Created by potrace 1.11, written by Peter Selinger 2001-2013
</metadata>
<g transform="translate(0.000000,399.000000) scale(0.100000,-0.100000)"
fill="#000000" stroke="none">
<path d="M1549 3975 c-3 -2 -16 -6 -31 -9 -110 -19 -197 -144 -185 -265 11
-105 73 -184 172 -219 56 -20 59 -25 71 -158 10 -116 12 -500 2 -589 -4 -38
-10 -91 -13 -116 -2 -25 -7 -52 -9 -60 -3 -8 -7 -25 -10 -39 -18 -103 -47
-186 -98 -285 -53 -103 -101 -190 -109 -201 -5 -6 -26 -42 -47 -80 -62 -111
-92 -165 -132 -234 -21 -36 -53 -94 -72 -130 -20 -36 -49 -91 -67 -122 -124
-229 -164 -305 -242 -458 -125 -244 -199 -413 -223 -505 -21 -81 -12 -221 18
-287 57 -125 178 -185 411 -206 105 -9 1919 -9 2011 0 88 9 192 33 230 53 16
8 33 15 38 15 4 0 26 14 48 31 75 60 105 133 111 269 6 117 -31 219 -199 555
-63 127 -134 266 -157 310 -73 136 -139 258 -162 300 -12 22 -36 65 -52 95
-16 30 -95 170 -176 310 -214 376 -234 427 -278 700 -20 123 -16 666 5 765 3
11 5 28 5 37 1 11 13 19 36 24 77 14 160 94 183 175 12 44 8 125 -7 163 -15
37 -64 106 -75 106 -5 0 -17 6 -25 14 -46 41 -87 45 -536 45 -238 0 -434 -1
-436 -4z m911 -299 c0 -2 -7 -9 -15 -16 -12 -10 -15 -10 -15 4 0 9 7 16 15 16
8 0 15 -2 15 -4z"/>
</g>
</svg>
